<?xml version="1.0" encoding="iso-8859-1"?>
<!-- Generator: Adobe Illustrator 19.0.0, SVG Export Plug-In . SVG Version: 6.00 Build 0)  -->
<svg version="1.1" id="Capa_1" xmlns="http://www.w3.org/2000/svg" xmlns:xlink="http://www.w3.org/1999/xlink" x="0px" y="0px"
	 viewBox="0 0 512.005 512.005" style="enable-background:new 0 0 512.005 512.005;" xml:space="preserve">
<path style="fill:#756A6B;" d="M78.294,323.28H14.365c-2.209,0-4-1.791-4-4v-65.825c0-2.209,1.791-4,4-4h63.928L78.294,323.28
	L78.294,323.28z"/>
<rect x="58.31" y="222.331" style="fill:#FF5948;" width="316.69" height="139.2"/>
<rect x="368.03" y="163.671" style="fill:#2D86CC;" width="143.97" height="197.86"/>
<rect x="105.92" y="110.671" style="fill:#FF5948;" width="82.41" height="92.88"/>
<rect x="157.43" y="110.671" style="fill:#D44A3C;" width="30.905" height="92.88"/>
<path style="fill:#1C5280;" d="M508,383.736H48.677v-30.904H512v26.904C512,381.945,510.209,383.736,508,383.736z"/>
<rect x="481.1" y="171.531" style="fill:#266FAB;" width="30.905" height="181.3"/>
<path style="fill:#76D1E3;" d="M398.938,258.528v-51.401c0-2.209,1.791-4,4-4h74.157c2.209,0,4,1.791,4,4v51.401
	c0,2.209-1.791,4-4,4h-74.157C400.728,262.528,398.938,260.737,398.938,258.528z"/>
<g>
	<path style="fill:#756A6B;" d="M368.033,229.218H52.677c-2.209,0-4-1.791-4-4v-22.904c0-2.209,1.791-4,4-4h315.356V229.218z"/>
	<path style="fill:#756A6B;" d="M512,171.531H337.132c-2.209,0-4-1.791-4-4v-22.904c0-2.209,1.791-4,4-4H508c2.209,0,4,1.791,4,4
		V171.531z"/>
</g>
<path style="fill:#635A5B;" d="M481.226,140.628v30.904H512v-26.904c0-2.209-1.791-4-4-4L481.226,140.628L481.226,140.628z"/>
<rect x="95.62" y="255.461" style="fill:#FFD359;" width="103.02" height="30.904"/>
<path style="fill:#756A6B;" d="M192.576,115.905h-90.897c-2.209,0-4-1.791-4-4V89.001c0-2.209,1.791-4,4-4h90.897
	c2.209,0,4,1.791,4,4v22.904C196.576,114.114,194.785,115.905,192.576,115.905z"/>
<path style="fill:#635A5B;" d="M165.671,85.001v30.904h26.905c2.209,0,4-1.791,4-4V89.001c0-2.209-1.791-4-4-4H165.671z"/>
<circle style="fill:#756A6B;" cx="128.93" cy="383.221" r="43.783"/>
<path style="fill:#D1D3D4;" d="M129.315,398.673c-8.52,0-15.453-6.931-15.453-15.452s6.933-15.452,15.453-15.452
	s15.453,6.931,15.453,15.452S137.836,398.673,129.315,398.673z"/>
<circle style="fill:#756A6B;" cx="234.1" cy="383.221" r="43.783"/>
<path style="fill:#D1D3D4;" d="M234.482,398.673c-8.52,0-15.453-6.931-15.453-15.452s6.933-15.452,15.453-15.452
	s15.453,6.931,15.453,15.452S243.002,398.673,234.482,398.673z"/>
<circle style="fill:#756A6B;" cx="339.26" cy="383.221" r="43.783"/>
<path style="fill:#D1D3D4;" d="M339.648,398.673c-8.52,0-15.453-6.931-15.453-15.452s6.933-15.452,15.453-15.452
	s15.453,6.931,15.453,15.452S348.168,398.673,339.648,398.673z"/>
<circle style="fill:#756A6B;" cx="444.43" cy="383.221" r="43.783"/>
<path style="fill:#D1D3D4;" d="M444.814,398.673c-8.52,0-15.453-6.931-15.453-15.452s6.933-15.452,15.453-15.452
	s15.453,6.931,15.453,15.452S453.334,398.673,444.814,398.673z"/>
<g>
	<path style="fill:#FFD359;" d="M481.095,296.271h-82.157c-4.143,0-7.5-3.358-7.5-7.5s3.357-7.5,7.5-7.5h82.157
		c4.143,0,7.5,3.358,7.5,7.5S485.237,296.271,481.095,296.271z"/>
	<path style="fill:#FFD359;" d="M481.095,321.606h-82.157c-4.143,0-7.5-3.358-7.5-7.5s3.357-7.5,7.5-7.5h82.157
		c4.143,0,7.5,3.358,7.5,7.5S485.237,321.606,481.095,321.606z"/>
	<path style="fill:#FFD359;" d="M285.157,262.964h-54.912c-4.143,0-7.5-3.358-7.5-7.5c0-4.142,3.357-7.5,7.5-7.5h54.912
		c4.143,0,7.5,3.358,7.5,7.5C292.657,259.606,289.3,262.964,285.157,262.964z"/>
	<path style="fill:#FFD359;" d="M285.157,293.868h-54.912c-4.143,0-7.5-3.358-7.5-7.5s3.357-7.5,7.5-7.5h54.912
		c4.143,0,7.5,3.358,7.5,7.5S289.3,293.868,285.157,293.868z"/>
</g>
<path style="fill:#2D86CC;" d="M10.765,407.824h47.549v-84.543H34.34l-33.808,70.47C-1.721,400.699,3.46,407.824,10.765,407.824z"/>
<g>
</g>
<g>
</g>
<g>
</g>
<g>
</g>
<g>
</g>
<g>
</g>
<g>
</g>
<g>
</g>
<g>
</g>
<g>
</g>
<g>
</g>
<g>
</g>
<g>
</g>
<g>
</g>
<g>
</g>
</svg>
